HIERARCHY
ROOT hip
{
	OFFSET 0.000000 0.000000 0.000000 
	CHANNELS 6 Xposition Yposition Zposition Xrotation Zrotation Yrotation
	JOINT abdomen
	{
		OFFSET 0.000000 3.402643 0.000000 
		CHANNELS 3 Xrotation Zrotation Yrotation
		JOINT chest
		{
			OFFSET 0.000000 8.438565 -0.680529 
			CHANNELS 3 Xrotation Zrotation Yrotation
			JOINT neck
			{
				OFFSET 0.000000 10.207942 -0.272212 
				CHANNELS 3 Xrotation Zrotation Yrotation
				JOINT head
				{
					OFFSET 0.000000 3.130431 0.000000 
					CHANNELS 3 Xrotation Zrotation Yrotation
					End Site
					{
						OFFSET 0.000000 3.130435 0.000000 
					}
				}
			}
			JOINT lCollar
			{
				OFFSET 3.470700 6.669187 -0.816635 
				CHANNELS 3 Yrotation Zrotation Xrotation
				JOINT lShldr
				{
					OFFSET 3.198488 0.000000 0.000000 
					CHANNELS 3 Zrotation Yrotation Xrotation
					JOINT lForeArm
					{
						OFFSET 10.139888 0.000000 0.000000 
						CHANNELS 3 Yrotation Zrotation Xrotation
						JOINT lHand
						{
							OFFSET 8.370511 0.000000 0.000000 
							CHANNELS 3 Zrotation Yrotation Xrotation
							End Site
							{
								OFFSET 4.083176 0.000000 0.000000 
							}
						}
					}
				}
			}
			JOINT rCollar
			{
				OFFSET -3.470700 6.669187 -0.816635 
				CHANNELS 3 Yrotation Zrotation Xrotation
				JOINT rShldr
				{
					OFFSET -3.198488 0.000000 0.000000 
					CHANNELS 3 Zrotation Yrotation Xrotation
					JOINT rForeArm
					{
						OFFSET -10.139888 0.000000 0.000000 
						CHANNELS 3 Yrotation Zrotation Xrotation
						JOINT rHand
						{
							OFFSET -8.370511 0.000000 0.000000 
							CHANNELS 3 Zrotation Yrotation Xrotation
							End Site
							{
								OFFSET -4.083176 0.000000 0.000000 
							}
						}
					}
				}
			}
		}
	}
	JOINT lThigh
	{
		OFFSET 5.308129 -1.633274 1.361059 
		CHANNELS 3 Xrotation Zrotation Yrotation
		JOINT lShin
		{
			OFFSET -2.041588 -20.007561 0.000000 
			CHANNELS 3 Xrotation Zrotation Yrotation
			JOINT lFoot
			{
				OFFSET 0.000000 -19.190928 -1.224953 
				CHANNELS 3 Xrotation Yrotation Zrotation
				End Site
				{
					OFFSET 0.000000 -2.449906 4.627600 
				}
			}
		}
	}
	JOINT rThigh
	{
		OFFSET -5.308129 -1.633274 1.361059 
		CHANNELS 3 Xrotation Zrotation Yrotation
		JOINT rShin
		{
			OFFSET 2.041588 -20.007561 0.000000 
			CHANNELS 3 Xrotation Zrotation Yrotation
			JOINT rFoot
			{
				OFFSET 0.000000 -19.190928 -1.224953 
				CHANNELS 3 Xrotation Yrotation Zrotation
				End Site
				{
					OFFSET 0.000000 -2.449906 4.627600 
				}
			}
		}
	}
}
MOTION
Frames: 8
Frame Time: 0.016667
-0.118443 52.391842 98.781387 -10.002150 0.377100 19.639132 39.259903 6.292906 7.513270 3.992062 2.577451 7.671335 -9.118481 -4.361364 0.680429 3.574998 -0.733833 -35.237816 0.750746 -10.418302 -0.551659 -51.426788 10.450761 -15.298647 -40.959812 -5.000000 26.477280 -21.797106 -16.565514 4.155172 11.879095 14.024405 -0.748429 38.966656 29.078352 16.125732 46.491764 -5.000000 -30.750683 -4.472464 6.861606 -10.903553 2.283232 6.947042 -2.568470 24.966606 -7.875222 -4.115736 -15.180558 2.110563 2.426151 -5.947210 -9.061655 -20.277903 45.985180 4.531054 5.120058 -11.760236 -4.207532 6.804574 
-0.143703 52.368870 99.746750 -9.801744 1.000190 20.013065 39.055969 5.754331 6.951313 3.998681 2.607144 7.466391 -9.028399 -4.237314 0.651822 3.655628 -0.709989 -35.227798 0.626628 -10.125716 -0.534825 -50.988941 9.902328 -14.740291 -41.854645 -5.000000 25.704359 -21.448835 -16.649984 4.088287 11.879095 14.024405 -0.748429 39.058990 29.095175 16.068108 46.403168 -5.000000 -30.821615 -4.397746 6.840380 -10.815956 3.639888 6.742697 -2.762490 24.499739 -7.861355 -4.012587 -15.994950 2.032690 2.296126 -6.932300 -10.219524 -19.674252 42.154598 5.234074 5.161988 -12.311280 -4.389473 6.682598 
-0.180770 52.296631 100.730118 -9.514413 1.803009 20.420801 38.789314 5.037794 6.237634 4.005169 2.636835 7.310277 -8.938564 -4.063521 0.625538 3.781452 -0.749875 -35.228176 0.493291 -9.764860 -0.516222 -50.609859 9.337354 -14.247839 -42.601082 -5.000000 24.976475 -21.315266 -16.663416 4.010729 11.849928 14.034160 -0.748935 39.169151 29.080456 15.990180 46.361927 -5.000000 -30.867193 -4.304764 6.800492 -10.762593 4.986550 6.362681 -3.039172 24.045341 -7.737489 -3.880976 -16.893463 1.926218 2.073109 -7.673251 -11.475497 -18.649300 37.730377 5.879202 4.898452 -12.781096 -4.503599 6.703382 
-0.217835 52.224388 101.713463 -9.221874 2.610625 20.833319 38.538239 4.322452 5.538249 4.020027 2.656830 7.143959 -8.848156 -3.891193 0.589615 3.912910 -0.797738 -35.228580 0.359915 -9.394253 -0.497094 -50.252827 8.783975 -13.760530 -43.344986 -5.000000 24.259373 -21.168121 -16.671700 3.918113 11.818372 14.045917 -0.740169 39.266434 29.061478 15.901538 46.315586 -5.000000 -30.924053 -4.211370 6.771474 -10.691675 6.294367 5.961967 -3.316874 23.617733 -7.626387 -3.764501 -17.742851 1.841145 1.880099 -8.406288 -12.737079 -17.618326 33.290264 6.503630 4.592756 -13.287627 -4.640489 6.743412 
-0.284449 52.089943 102.736916 -8.819984 3.469012 21.222502 38.172100 3.457349 4.740805 4.011087 2.705756 6.987787 -8.708778 -3.689896 0.548671 3.968662 -0.838832 -35.111828 0.255620 -9.033401 -0.476916 -49.930077 8.357506 -13.309876 -43.779911 -5.000000 23.650211 -20.984142 -16.719418 3.798454 11.801893 14.092678 -0.751965 39.422283 29.002380 15.842030 46.377132 -5.000000 -30.839298 -4.131464 6.720884 -10.601686 7.568618 5.565834 -3.888912 23.149908 -7.577635 -3.675767 -18.475594 2.055886 1.754831 -8.855903 -13.744800 -16.864218 28.230534 6.122579 3.656335 -12.920437 -4.474738 7.206664 
-0.351062 51.955498 103.760368 -8.412458 4.331855 21.617905 37.824619 2.591814 3.960857 4.001563 2.754726 6.831629 -8.569578 -3.488598 0.508378 4.024248 -0.880037 -34.995102 0.141514 -8.662792 -0.457811 -49.608063 7.920731 -12.856457 -44.209709 -5.000000 23.049603 -20.789806 -16.767214 3.675739 11.792923 14.151192 -0.754993 39.576077 28.936499 15.776250 46.423042 -5.000000 -30.777866 -4.062043 6.678575 -10.502616 8.813384 5.162726 -4.471305 22.724556 -7.559519 -3.568035 -19.247179 2.322036 1.719019 -9.326057 -14.774536 -16.090546 23.204809 5.662112 2.743487 -12.510011 -4.276626 7.695960 
-0.424845 51.791203 104.821190 -8.013422 5.179751 22.048361 37.465374 1.751723 3.179035 3.959636 2.784345 6.675507 -8.381649 -3.277643 0.466614 4.107066 -0.888672 -34.936520 -0.060919 -8.331181 -0.440700 -49.267517 7.585505 -12.487271 -44.333340 -5.000000 22.695408 -20.587202 -16.909809 3.438607 11.765226 14.268218 -0.761047 39.641174 28.830587 15.681670 46.446262 -5.000000 -30.680920 -4.056447 6.622015 -10.461050 10.080628 4.849816 -5.148653 22.290251 -7.503814 -3.444292 -20.032179 2.543334 1.526656 -9.579330 -15.651267 -15.728093 18.336943 4.979589 1.908274 -12.295720 -4.431673 7.925333 
-0.503411 51.607010 105.906952 -7.611882 6.012023 22.513834 37.093567 0.923521 2.431492 3.905648 2.804335 6.509180 -8.145011 -3.057030 0.423378 4.222536 -0.872868 -34.916847 -0.341581 -7.999552 -0.422215 -48.889553 7.308986 -12.162809 -44.250870 -5.000000 22.503096 -20.370560 -17.117783 3.127011 11.738086 14.424250 -0.769113 39.666622 28.677252 15.570954 46.462730 -5.000000 -30.569427 -4.104871 6.553126 -10.473429 11.402579 4.568706 -5.850858 21.841318 -7.425689 -3.344111 -20.881496 2.812246 1.322369 -9.658235 -16.483967 -15.649379 13.582605 4.127320 1.186720 -12.210035 -4.686974 8.026397 
